<?xml version="1.0" standalone="no"?><!DOCTYPE svg PUBLIC "-//W3C//DTD SVG 1.1//EN" "http://www.w3.org/Graphics/SVG/1.1/DTD/svg11.dtd"><svg t="1780630305411" class="icon" viewBox="0 0 1024 1024" version="1.1" xmlns="http://www.w3.org/2000/svg" p-id="18310" xmlns:xlink="http://www.w3.org/1999/xlink" width="200" height="200"><path d="M906.624 216.96a53.312 53.312 0 0 0-53.312-53.248h-96v448h96a53.312 53.312 0 0 0 53.312-53.312V216.96z m-629.312-53.248a53.376 53.376 0 0 0-51.2 38.4L126.72 543.36a53.312 53.312 0 0 0 51.2 68.288h248.704a32.064 32.064 0 0 1 31.104 39.552l-42.688 175.744v0.128a101.632 101.632 0 0 0 53.312 115.2c7.872 3.968 16.32 6.72 24.96 8.448l137.28-274.048a117.376 117.376 0 0 1 62.72-57.088V163.712h-416z m693.312 394.688a117.312 117.312 0 0 1-117.312 117.312h-117.76a53.376 53.376 0 0 0-47.744 29.632l-147.2 294.016a32 32 0 0 1-29.056 17.664 165.504 165.504 0 0 1-158.72-205.056l33.088-136.32H177.92a117.312 117.312 0 0 1-112.64-150.144l99.392-341.312a117.504 117.504 0 0 1 112.64-84.48h576a117.312 117.312 0 0 1 117.312 117.312v341.376z" p-id="18311"></path></svg>